<?xml version="1.0" encoding="utf-8"?>
<!-- Generator: Adobe Illustrator 21.0.0, SVG Export Plug-In . SVG Version: 6.00 Build 0)  -->
<svg version="1.1" id="Layer_1" xmlns="http://www.w3.org/2000/svg" xmlns:xlink="http://www.w3.org/1999/xlink" x="0px" y="0px"
	 viewBox="0 0 512 512" style="enable-background:new 0 0 512 512;" xml:space="preserve">
<style type="text/css">
	.st0{fill:#E54D24;}
	.st1{fill:#FFFFFF;}
</style>
<path class="st0" d="M512,256C512,114.6,397.4,0,256,0C114.6,0,0,114.6,0,256c0,141.4,114.6,256,256,256
	C397.4,512,512,397.4,512,256L512,256z"/>
<path class="st1" d="M397,170.2c-6-15.5-18.3-13.1-31.6-10.5c-7.9,1.7-43.3,12-99.2,71c-23.2,24.5-38.5,44-48.6,58.9
	c-6.2-7.6-13.2-15.6-20.6-23.1c-22.8-22.8-48.2-38.4-49.3-39.1c-10.7-6.5-24.6-3.2-31.1,7.5c-6.5,10.7-3.2,24.6,7.5,31.1
	c0.2,0.1,22,13.6,40.9,32.5c19.2,19.2,36.6,45.2,36.8,45.5c4.2,6.4,11.4,10.1,18.8,10.1c1.3,0,2.6-0.1,3.9-0.3
	c8.8-1.5,15.9-8.1,18.1-16.9c0.1-0.2,9-25,56.5-75c38.2-40.3,63.7-53.1,72.5-56.7c0.1,0,0.1,0,0.3,0c0,0,0.3-0.1,0.8-0.4
	c1.5-0.6,2.3-0.8,2.4-0.8c-0.4,0.1-0.7,0.1-0.7,0.1l0-0.1c4.1-1.8,11.7-5.1,11.9-5.1C397.7,194.2,401.5,181.8,397,170.2L397,170.2z"
	/>
</svg>
